<svg xmlns="http://www.w3.org/2000/svg" viewBox="0 0 200 200"><path d="M49.4 176.43c-14.96-1.24-28.19-11.47-32.89-25.43q-4.38-13.02-.22-24.52c2.26-6.24 6.28-13.2 6.9-21.6q.28-3.77-.31-12.23Q20.95 64.77 19 36.9c-.6-8.53 2.48-12.35 10.93-12.36q17.17-.02 34.32-.02c8.24.01 10 5.44 9.99 12.85q-.02 19.31-.04 38.62c-.01 7.89 1.49 15.13 6.39 21.62q20.54 27.23 52.48 38.62c9.45 3.37 19.66 5.27 30.18 7.03 7.77 1.3 13.12 8.43 11.18 16.32-1.83 7.48-11.76 13.42-18.51 15.24q-4.99 1.35-16.93.88-26.88-1.04-53.75-2.18-9.98-.43-24.1 1.93-7.81 1.3-11.74.98zm1.48-6.31q7.3.07 19.86-2.37 4.83-.94 20.01-.3 25.7 1.08 51.4 2.07c10.43.4 16.55-.85 23.69-7.67 5.17-4.93 2.34-11.51-4.21-12.5-30.78-4.66-56.1-14.74-77.45-38.02q-3.11-3.39-6.24-6.84c-7.27-8.01-9.88-17.03-9.99-27.99q-.22-21.76-.09-42.95a2.71 2.71 0 0 0-2.71-2.73l-37.13-.01a2.92 2.91-2 0 0-2.91 3.12q2.33 33.17 4.5 64.82.75 10.87-3.91 21.86-3.39 8.01-3.79 9.58-3.8 14.7 4.67 26.51c5.59 7.79 14.72 13.34 24.3 13.42z"/><circle cx="35.79" cy="122.24" r="4.29"/><path d="M45.6 159.39c-9.52-4.57-15.06-14.05-14.66-24.57.28-7.48 8.83-6.56 8.52-.65q-.51 9.78 6.93 15.73c1.44 1.15 4.32 2.03 5.46 3.5 1.09 1.4.84 3.86-.34 5.23q-2.19 2.55-5.91.76zm133.36 11.86c-3.61 9.06-13.32 14.87-22.7 16.79q-3.99.82-12.09.52-31.21-1.13-62.42-2.43-11.64-.48-27.97 2.22c-17.48 2.88-32.39-2.79-43.06-17.15q-.73-.98.5-.98l6.85.01q.52 0 .87.39 10.05 10.96 24.33 11.91 3.4.22 12.4-1.1 15.86-2.32 35.08-1.55 26.09 1.05 52.19 2 9.14.33 13.05-.63c5.7-1.42 12.61-5.13 15.76-10.46q.33-.55.97-.55l5.54-.02a.75.75 0 0 1 .7 1.03z"/></svg>