<svg xmlns="http://www.w3.org/2000/svg" viewBox="0 0 200 200"><path d="M147.86 131.41q5.39 3.21 16.64 8.61 14.28 6.86 23.55 17.19c14.19 15.83-3.13 41.74-23.3 34.88-11.33-3.85-19.87-18.08-24.82-28.22q-3.98-8.17-8.51-16.06a.81.81 0 0 0-.78-.4c-6.58.64-9.73-4.62-13.76-8.42q-.39-.37-.85-.09c-29.68 18.15-67.83 13.09-90.92-12.75C-10.97 85.76 8.77 21.83 61.28 8.8c40.15-9.96 80.84 16.77 87.47 57.93q4.19 25.98-9.87 49.57a.53.53 0 0 0 .09.65c3.89 3.85 9.06 7.14 8.46 13.61q-.05.56.43.85zm-4.37-53.17a65.21 65.21 0 1 0-130.42 0 65.21 65.21 0 1 0 130.42 0zm-8.43 44.04l-12.79 12.75a.25.25 0 0 0 0 .35l4.86 4.88a3.21 3.18-44.9 0 0 4.52-.01l8.6-8.57a3.21 3.18-44.9 0 0 .03-4.52l-4.86-4.88a.25.25 0 0 0-.36 0zm42.93 35.21q.12-.11.22-.25.3-.43-.1-.77c-10.45-8.91-23.87-14.01-33.54-19.53q-.41-.23-.75.1l-6.78 6.78q-.34.34-.1.76c5.72 9.85 10.61 23.19 19.56 33.4q.32.36.73.1 12.59-7.86 20.53-20.33.07-.11.23-.26zm-16.33 25.76c13.95 11.87 33.59-7.78 21.62-21.55q-.33-.38-.6.05-8.17 12.79-20.98 20.93-.41.26-.04.57zM137.38 78.23a59.1 59.1 0 1 1-118.2 0 59.1 59.1 0 0 1 118.2 0zm-6.33.01a52.77 52.77 0 1 0-105.54 0 52.77 52.77 0 1 0 105.54 0zM72.079 53.3a10.81 9.5 89.9 0 1-9.519-10.793 10.81 9.5 89.9 0 1 9.481-10.827 10.81 9.5 89.9 0 1 9.519 10.793A10.81 9.5 89.9 0 1 72.079 53.3zm-.019-6.17a4.62 3.02 90 0 0 3.02-4.62 4.62 3.02 90 0 0-3.02-4.62 4.62 3.02 90 0 0-3.02 4.62 4.62 3.02 90 0 0 3.02 4.62zm31.13.02a9.38 9.38 0 0 1-18.76 0 9.38 9.38 0 0 1 18.76 0zm-6.34.02a3.05 3.05 0 0 0-6.1 0 3.05 3.05 0 1 0 6.1 0zM42.02 58.91a1.45 1.45 0 0 1-2.05.16l-.92-.8a5.37 3.81-49.4 0 1 .6-6.55l6.4-7.47a5.37 3.81-49.4 0 1 6.39-1.6l.93.79a1.45 1.45 0 0 1 .15 2.05l-11.5 13.42zm76.72.68a9.38 9.38 0 0 1-18.76 0 9.38 9.38 0 0 1 18.76 0zm-6.34 0a3.05 3.05 0 0 0-6.1 0 3.05 3.05 0 0 0 6.1 0zM57.82 83.14c10.32-3.6 3.67-15.6 11.78-21.29 5.5-3.85 16.37-2.5 21.91.69 15.37 8.88 5.92 26.71-4.8 34.42q-15.36 11.05-34.01 12.25c-6.86.45-13.22-1.12-14.65-8.44-2.31-11.85 10.88-14.52 19.77-17.63zm31-14.72c-3.81-1.96-15.71-5.28-17.29 1.08-2.17 8.7-.9 15.32-10.66 19.15Q54.9 91 48.88 93.19q-3.7 1.34-4.31 3.11c-2.97 8.72 9.16 6.98 13.93 6.05q14.47-2.8 25.99-11.87c5.59-4.4 14.04-17.08 4.33-22.06zm-49.93 1.12q-1.42 6.71-.69 13.51c.31 2.9-.91 5.38-4.19 4.37-3.84-1.18-2.1-15.03-1.56-18.03 1.05-5.83 7.33-4.03 6.44.15zm63.22 48.81c-4.03 2.51-7.62-2.63-3.18-5.4q7.14-4.45 12.18-11.22c3.03-4.06 7.84-.27 5.32 3.33q-5.43 7.76-14.32 13.29z"/></svg>