<svg xmlns="http://www.w3.org/2000/svg" viewBox="0 0 200 200"><path d="M140.87 50.24c11.41 1.21 13.72 14.07 3.06 18.43-6.61 2.7-16.08.75-17.15-7.53q-.07-.5-.57-.5-7.85-.08-11.23-7.04-.23-.47-.75-.38-8.06 1.37-13.47-4.52a.71.7 57.8 0 0-.78-.18q-8.86 3.35-16.53-1.99-.38-.26-.78-.01-15.05 9.41-27.9-1.52-4.3-3.65-5.29-9.35c-2.51-14.38 11.34-23.66 24.27-21.34q9.41 1.68 14.36 9.72.27.44.76.28 12.14-3.95 19.39 6.06.3.42.82.31c7.13-1.58 14.66.72 16.81 8.35q.14.5.66.45c6.75-.68 13.49 2.72 13.8 10.2q.02.51.52.56zM84.59 32.26A14.89 13.65 0 0 0 69.7 18.61a14.89 13.65 0 0 0-14.89 13.65A14.89 13.65 0 0 0 69.7 45.91a14.89 13.65 0 0 0 14.89-13.65zm16.28 9.99c2.62-2.16 6.77-.06 4.44 2.85a.65.63 43.6 0 0 .03.83q3.8 4.17 9.4 2.24c9.97-3.42 5.88-16.02-4.74-12.74q-.47.15-.72.58-1.04 1.78-3.16 1.49a2.45 2.44 86.8 0 1-2.05-1.84q-2.36-9.61-12.48-7.2-1.57.37-1.43 1.99.58 6.42-3.11 11.62-.34.48.12.84c4.2 3.24 9.62 2.69 13.7-.66zm24.29 3.17q-1.4 3.12-4.56 5.25-.41.28-.32.77c1.72 9.6 20.06 2.2 12.9-5.59-1.45-1.59-3.86-1.65-6.07-1.72q-1.35-.04-1.95 1.29zm12.72 19.68c8.4.18 10.32-10.63 1.23-10.22q-.49.02-.81.4-2.28 2.75-5.55 4.24a.77.77 0 0 0-.45.8q.62 4.68 5.58 4.78zm-20.86 7.77c-9.35-8.46-23.21-14.31-35.9-11.29q-16.49 3.93-15.96 21.07.11 3.44 2.04 10.04c6.68 22.89 7.95 46.58-.25 69.18q-2.06 5.66-2.1 8.45-.14 8.05 6.18 13.89c9.42 8.7 22.22 3.18 29.39-5.07 16.03-18.47 24.13-47.01 27.78-70.9 1.44-9.4 2.22-17.35-3.15-25.82-2.51-3.96 2.04-6.98 4.53-3.29 6.33 9.34 5.91 18.76 4.22 29.88q-3.05 20.11-11.27 42.51c-4.83 13.16-12.97 29.14-24.38 37.2-7.71 5.45-17.74 7.84-26.47 2.82q-12.37-7.12-12.43-21.69c-.02-5.38 2.62-9.92 4.13-14.99 6.01-20.17 4.19-41.77-1.93-61.67-7.37-24.01 7.11-39.85 30.64-37.69q17.19 1.58 29.57 14.27a2.44 2.42 42.9 0 1 .13 3.26c-1.58 1.89-3.12 1.34-4.77-.16zm-24.36-.72c-11.58-.09-14.7 6.22-15.12 16.88a1.46 1.43 67.1 0 1-.35.89c-1.33 1.51-4.54 1.06-4.36-1.28.53-7.02 1.53-15.13 8.57-18.74 2.26-1.16 12.9-4.87 13.5-.27a2.24 2.23-3.5 0 1-2.24 2.52zm25.93 42.67c-1.4 3.82-6.07 2.46-4.47-1.64 3.45-8.8 1.31-17.94-2.98-26.04-2.1-3.96 2.4-5.77 4.08-2.63 5.09 9.55 7.25 19.67 3.37 30.31zm-24.65 31.77q-1.06 2.91-2.51 4.86a2.24 2.24 0 0 1-3.58.02q-.98-1.27-.28-2.71c7.66-15.6 6.9-31.67.19-47.63-.81-1.92-.46-3.52 1.77-3.87a1.88 1.87 72.4 0 1 1.98 1.03q11.42 23.59 2.43 48.3zm-9.86 30.49c3.43-.21 7.41-3.48 9.95-5.97a2.13 2.12-44.7 0 1 2.98.01q1.63 1.61.28 3.17c-11.87 13.72-27.89 8.01-23.73-11.27q.47-2.19 1.87-2.46 1.85-.35 2.61.89.47.76.12 2.31c-1.02 4.63-1.58 13.78 5.92 13.32z"/></svg>