<svg xmlns="http://www.w3.org/2000/svg" viewBox="0 0 199 200"><path d="M123.24 44.35q6.85-1.77 10.28 4.02a.9.9 0 0 0 .88.43q7.09-.92 9.51 5.52a.89.89 0 0 0 .77.58q6.62.41 7.75 6.97.08.49.56.64 5.72 1.73 5.48 7.24c-.36 8.42-12.7 10.74-15.21 1.84q-.16-.57-.74-.67-3.94-.74-5.66-4.33a.92.91-14.9 0 0-.9-.52q-3.98.26-6.55-2.75a.86.84-28.8 0 0-.9-.25q-4.56 1.43-8.54-1.03-.5-.31-1.02-.03-9.79 5.12-16.03-1.73C90.01 46.12 112.35 27.24 122.4 44a.76.76 0 0 0 .84.35zm-11.619 15.02a8.49 7.68 90.4 0 0 7.739-8.436 8.49 7.68 90.4 0 0-7.621-8.543A8.49 7.68 90.4 0 0 104 50.826a8.49 7.68 90.4 0 0 7.62 8.543zm18.399-3.05c2.16-.34 3.18 1.2 2.62 3.14q-.14.5.23.87c3.82 3.85 9.55-3.71 5.17-6.4q-2.27-1.39-3.94.62-.27.32-.68.43-2.67.72-3.09-1.57-.95-5.19-5.49-4.67a.73.73 0 0 0-.64.79q.33 3.62-1.19 6.94a1.63 1.63 0 0 0 1.45 2.31q2.92.06 4.94-2.13a1.14 1.09-71.7 0 1 .62-.33zm14.11 3.63l-2.74 3.72a1.15 1.15 0 0 0 .25 1.61l.43.32a3.37 3.33 36.3 0 0 4.69-.69l.16-.21a3.37 3.33 36.3 0 0-.75-4.68l-.43-.32a1.15 1.15 0 0 0-1.61.25zm7.21 7.21l-3.19 2.85a.87.87 0 0 0-.07 1.23l.14.16a3.14 2.96 48.2 0 0 4.3.37l.07-.07a3.14 2.96 48.2 0 0 .12-4.31l-.14-.16a.87.87 0 0 0-1.23-.07zm-74.99-7.57q5.93-8.95 15.2-5.46c15.46 5.81 7.26 32.95-11.89 23.4q-.49-.24-.95.06-3.85 2.55-8.3 1.04-.55-.19-.93.25-2.7 3.04-6.81 2.8-.52-.03-.73.44-1.71 3.71-5.8 4.39-.55.09-.68.64-1.2 5.11-5.72 5.63c-9.3 1.09-13.7-11.55-3.99-14.75q.54-.17.64-.72 1.24-6.49 7.79-6.87.51-.03.69-.5 2.47-6.49 9.59-5.6.56.07.84-.42 3.49-5.84 10.25-4.03.51.14.8-.3zm10.794 15.33a8.48 7.69 89.7 0 0 7.645-8.52 8.48 7.69 89.7 0 0-7.734-8.44 8.48 7.69 89.7 0 0-7.645 8.52 8.48 7.69 89.7 0 0 7.734 8.44zM68.14 69.63q-.84 1.28-2.35 1.12a1.29 1.24 71.3 0 1-.81-.42q-1.88-2.11-3.92-.94c-4.59 2.61.17 10.03 4.98 6.54a.21.2 69.2 0 0 .08-.2q-.31-1.72.17-2.7c.82-1.64 2.7-1.26 3.86-.25 1.83 1.6 3.61 2.24 5.87.81q.47-.3.19-.79-1.97-3.47-1.6-7.48.05-.52-.43-.71c-2.89-1.16-5.69 1.05-5.75 4.08q-.01.51-.29.94zm-10.76 9.64l-2.66-3.75a1.14 1.14 0 0 0-1.59-.27l-.47.34a3.34 3.33-35.4 0 0-.8 4.65l.13.18a3.34 3.33-35.4 0 0 4.65.77l.48-.33a1.14 1.14 0 0 0 .26-1.59zm-6.77 6.25l-3.15-2.74a.88.88 0 0 0-1.24.08l-.28.32a2.92 2.89-48.9 0 0 .26 4.1l.12.1a2.92 2.89-48.9 0 0 4.1-.3l.28-.31a.88.88 0 0 0-.09-1.25zm91.14-11.11a2.04 2.03-49.6 0 1 .2 2.55c-1.18 1.71-2.91 1.32-4.33.04q-4.32-3.89-9.88-5.62c-11.32-3.53-20.36 2.79-16.99 15.17 3.89 14.3 5.08 27.36 0 41.51q-1.26 3.5-.95 5.59c.76 5.15 5.95 9.05 11.05 7.89 14.65-3.31 21.89-35.36 23.54-48.31q.8-6.22-2.11-10.8c-1.06-1.66-.95-2.87.86-3.75a2.3 2.29 58.4 0 1 2.83.68q3.82 5.06 3.26 11.87c-1.34 16.32-6.11 34.31-16.3 47.45-5.9 7.61-16.45 11.39-24.04 3.35q-6.15-6.52-2.89-15.46c4.28-11.76 4.41-23.36 1.1-35.33q-2.11-7.63-2.14-9.61c-.1-7.75 4.67-13.66 12.26-15.35 8.83-1.96 18.43 1.72 24.53 8.13zM52.49 95.37q.99-1.95 3.46-1.01a2.09 2.09 0 0 1 .92 3.23q-3.24 4.17-2.62 10.15c1.56 15.11 8.1 40.98 21.38 48.6q2 1.15 4.67.95c4.48-.33 8.01-3.84 8.67-8.21q.31-2.1-.92-5.53c-4.84-13.48-4.08-26.05-.39-39.92q1.44-5.39 1.24-7.9-.73-8.96-10.91-9.61-9.29-.59-16.64 6.33c-1.36 1.28-3.26 1.83-4.4.08a2.24 2.22 51.3 0 1 .3-2.8c7.24-7.18 18.4-10.81 27.82-6.72q8.48 3.69 8.65 14.31c.06 3.74-1.62 8.26-2.61 12.44-2.38 10.01-2.47 20.16.76 29.83.94 2.83 2.24 5.73 2.05 8.65-.48 7.46-5.76 13.22-13.24 13.8-20.42 1.58-32.45-44.4-31.16-59.29.22-2.54 1.72-4.92 2.97-7.38z"/></svg>