<svg xmlns="http://www.w3.org/2000/svg" viewBox="0 0 200 200"><path d="M110.41 91.92c3.9-7.47 5.01-15.5 5.04-24.79q.05-14.06.04-28.14c0-3.63 3.07-5.22 6.52-5.22q24.83-.01 49.68.02c1.91 0 3.69 1.36 3.39 3.38q-2.03 13.28-1.65 25.58c.25 7.87 4.34 15.49 8.68 23.09 9.9 17.35 10.2 34.84 9.32 53.16-.54 11.26-5.98 19.99-17.95 21.2-8.88.9-14.65-.51-24.88-2.85q-5.26-1.21-14.59-.34-15.87 1.48-30.8 6.71-14.23 4.99-15.04 5.2-16.99 4.48-34.64 2.63c-5.16-.54-9.61-2.84-15.74-1.72q-6.73 1.22-6.75 1.23c-10.05.48-20.53-4.6-22.07-15.56q-.49-3.55-.39-8.51c.16-7.25 2.07-12.05 9.19-14.17q12.95-3.85 26.08-7.03c12.13-2.94 20.86-10.45 32.22-14.65 13.3-4.92 27.15-5.45 34.34-19.22zm-11.17 63.12a2.22 2.22 0 0 1-2.93.74c-8.4-4.61-21.98-7.91-29.84-.21-.87.85-2.65 1.43-3.59 1.5q-11.45.91-22.87 1.98c-7.57.7-20.73 1.41-19.2-10.14q1.05-7.92 9.93-8.43 16.7-.97 24.51-1.75.47-.05.83-.35 2.56-2.14 5.65-1.3.46.13.92 0 8.33-2.21 15.78-6.46c3.45-1.96 5.13-4.64 6.9-8.01 1.44-2.74 4.14-4.78 6.46-1.5a1.42 1.42 0 0 0 2.51-.37q4.28-12.73 17.56-10.21.5.09.99-.09l4.91-1.86q.49-.19.79-.63 2.13-3.1 5.96-3.62a.62.62 0 0 0 .53-.56q.43-4.8 2.62-9.06.23-.47-.06-.9c-4.89-7.19-3.49-16.86-.89-24.56q.94-2.78.95-5.16.08-11.77 0-23.58-.01-.58-.59-.58l-4.85-.03q-.44 0-.45.44-.13 11.9-.15 23.82c-.03 12.4-.81 21.92-6.21 31.57-6.89 12.33-18.67 16.12-31.73 19.4-13.3 3.34-24.55 13.67-35.67 16.15q-14.21 3.17-28.19 7.19c-6.22 1.79-5.37 8.98-4.87 14.01 1.26 12.43 12.17 13.71 22.08 11.39 6.78-1.59 11.45.83 17.02 1.45q15.37 1.73 30.26-1.82 3.19-.76 14.8-4.88c16.9-6 35.01-10.4 52.97-6.82 13 2.59 31.48 7.83 32.98-12.31 1.15-15.31.88-31.04-5.55-44.6-5.39-11.36-12.15-20.97-12.36-34.08-.09-5.38.34-13.69 1.23-20.33q.06-.47-.41-.47l-8.28.02q-.6 0-.54.6 3.13 29.4 9.15 58.35.63 3.06 2.54 4.21c13.75 8.26 14.19 23.59 8.46 37.12-2.61 6.16-8.12 10.27-14.87 9.38q-7.04-.93-7.86-9.73-.05-.58-.63-.48c-8.85 1.53-16.51 4.13-20.79-6.09q-.25-.61-.72-.14-4.1 4.12-9.53 6.15-.54.2-.43.76 1.21 6.68-4.4 9.14c-1.54.68-3.58.4-5.31.44-4.34.09-9.79 2.27-14.02 3.48a1.09 1.06 8 0 0-.62.45l-.88 1.37zm39.51-64.83c2.05.32 3.48 2.21 5.48 2.33q4.81.28 11.03-2.01c5.69-2.1 3.68-6.81 2.97-11.31q-3.05-19.28-5.41-38.69-.06-.51-.57-.51l-17.99.01q-.49 0-.49.48-.06 12.48 0 24.98.01 2.28-.9 4.87c-2.15 6.11-4.25 14.88.43 20.48q.37.44.88.17 2.27-1.16 4.57-.8zm.73 35.94c1.01 1.02 1.1 2.16 1.31 3.5 1.41 8.89 10.83 3.7 15.95 3.63 8.6-.11 3.88 11.57 9.79 10.47 5.46-1.01 7.34-5.44 8.69-10.63 1.93-7.4 2.21-15.14-3.04-21.11q-.6-.68-4.36-3.36c-5.35-3.81-5.28-7.63-6.66-13.57q-.11-.46-.52-.23c-5.54 3.04-17.01 6.23-22.49 2.01q-.35-.27-.78-.16l-4.12 1.05a.58.56 4 0 0-.39.33q-1.84 4.34-1.9 9.07c-.04 3.69-4.31 2.66-6.46 3.57q-.62.26-.13.72 7.71 7.23 15.11 14.71zm-24.4 2.62c5.85 7.33 10.95 4.79 16.27-1.24q.27-.3-.02-.58l-11.73-11.36a2.17 2.16 49.7 0 0-2.74-.23c-5.36 3.69-5.58 8.65-1.78 13.41zm-7.64-12.01a.41.41 0 0 0-.45-.57q-5.49 1.11-6.7 6.5-.15.64.48.81l4.91 1.36q.75.2.65-.56-.51-3.96 1.11-7.54zm9.11 21.66q-3.69-1.69-6.8-6.38-.31-.48-.88-.51-6.73-.36-12.81-3.25-.76-.36-.44.42 3.5 8.45 4.3 17.59.05.62.65.47 4.08-1 8.07-2.24c3.17-.99 5.73-1.1 8.88-.99q.53.01.73-.47 1.36-3.24-1.7-4.64zm-50.8 9.64c9-4.93 18.2-3.71 27.5-.48q.54.19.48-.38-.95-9.17-4.56-17.63-.26-.62-.64-.06c-4.25 6.34-12.61 9.97-19.67 12.13-3.25 1-5.01 2.71-3.75 6.18q.18.49.64.24zm-8.95-3.59q-12.76 1.87-25.67 2.2c-2.71.07-3.9 1.02-4.35 3.61q-.33 1.92 1.58 2.3 2.12.42 4.9.32 12.76-.46 25.52-1.78.41-.04.36-.45l-.87-6.26q-.04-.29-.34-.26-.19.02-.36.08-.68.23-.77.24z"/></svg>