<svg xmlns="http://www.w3.org/2000/svg" viewBox="0 0 200 200"><path d="M126.46 39.44c7.07-.4 13.33 2.48 13.95 10.29q.03.5.53.54c5.29.43 10.03 3.97 9.79 9.61-.51 11.87-21.86 14.11-24 1.25q-.08-.48-.56-.48-7.81-.1-11.23-7.06-.22-.45-.72-.36-7.95 1.33-13.44-4.47-.38-.4-.91-.21-8.74 3.27-16.32-1.95-.38-.26-.77-.02-13.28 8.11-25.16.42c-11.67-7.55-11.09-23.1.85-29.99 9.93-5.73 23.46-3.42 29.42 6.78q.41.7 1.18.46 11.96-3.79 19.15 6.04.33.45.88.35c7.18-1.35 14.58.58 16.76 8.37q.13.46.6.43zm-41.87-7.18A14.89 13.65 0 0 0 69.7 18.61a14.89 13.65 0 0 0-14.89 13.65A14.89 13.65 0 0 0 69.7 45.91a14.89 13.65 0 0 0 14.89-13.65zm21.29 11.89l-.66 1.24q-.29.55.21.93 6.17 4.64 11.62.62c7.88-5.81 1.01-14.32-7.02-11.46q-.45.16-.72.55c-1.31 1.94-5.03 2.15-5.43-.38-1.1-6.94-7.57-9.34-13.5-6.74q-.42.18-.35.64.97 6.32-2.48 11.75a1.93 1.93 0 0 0 1.07 2.89q7.03 2.12 11.91-1.68c2.01-1.57 4.59-2.05 5.43.86a1.06 1.02-40.3 0 1-.08.78zm19.54.63q-1.51 3.67-4.8 5.88-.44.3-.33.81c1.63 7.47 14.59 4.89 14.34-2.29-.15-4.34-5.09-5.61-8.68-4.84a.74.74 0 0 0-.53.44zm6.89 15.49c.7 6.21 8.75 6.08 11.78 2.06 3.06-4.07-.68-7.63-4.96-7.44q-.51.02-.84.41-2.28 2.75-5.55 4.21a.75.74 74.8 0 0-.43.76zM85.52 188.24c28.17-5.82 41.21-65 43.64-88.49q.97-9.34-3.96-17.04c-2.65-4.14 1.82-7.2 4.04-3.97 6.03 8.78 6.43 16.98 4.96 27.52-3.43 24.6-11.53 54.15-28.12 74.81-9.94 12.38-26.87 19.14-39.86 6.32q-8.13-8.02-6.72-19.75.31-2.58 3-10.31c6.77-19.49 5.4-40.66.1-60.33q-3.04-11.27-3.21-13.53c-1.75-23.63 21.04-32.16 40.54-26.53q12.82 3.71 21.72 12.66a2.55 2.55 0 0 1 .15 3.42c-1.57 1.9-3.12 1.35-4.78-.15-7.76-7.01-17.67-11.72-28.14-12.03-13.2-.41-24.15 6.69-23.81 21.13q.08 3.48 2.25 10.93c5.97 20.52 8.06 45.87 1.01 65.11q-2.72 7.42-3.08 9.52c-2.04 11.84 7.92 23.27 20.27 20.71zm17.02-106.961A17.73 16.55-.1 0 1 84.839 97.86 17.73 16.55-.1 0 1 67.08 81.341 17.73 16.55-.1 0 1 84.781 64.76a17.73 16.55-.1 0 1 17.759 16.519zm-4.28.007A13.46 12.26-.1 0 0 84.779 69.05 13.46 12.26-.1 0 0 71.34 81.334 13.46 12.26-.1 0 0 84.821 93.57 13.46 12.26-.1 0 0 98.26 81.287zm15.37 34.914a16 11.86 90 0 1-11.86-16 16 11.86 90 0 1 11.86-16 16 11.86 90 0 1 11.86 16 16 11.86 90 0 1-11.86 16zm0-4.28a11.72 7.59 90 0 0 7.59-11.72 11.72 7.59 90 0 0-7.59-11.72 11.72 7.59 90 0 0-7.59 11.72 11.72 7.59 90 0 0 7.59 11.72zm-12.27 56.23a16.93 16.93 0 1 1-33.86 0 16.93 16.93 0 1 1 33.86 0zm-4.26 0a12.68 12.68 0 1 0-25.36 0 12.68 12.68 0 1 0 25.36 0z"/></svg>