<svg xmlns="http://www.w3.org/2000/svg" viewBox="0 0 200 200"><path d="M114.96 127.79c15.27 8.81 31.07 12.74 49.09 15.44q3.5.53 6.63 3.32c7.26 6.48 5.18 15.8-2.06 21.6-8.7 6.95-15.15 8.07-27 7.63q-27.93-1.05-55.87-2.26-10.1-.43-24.18 1.92-7.7 1.28-11.68.99c-24.1-1.74-39.78-24.98-33.8-48.05q.54-2.06 3.4-8.56c3.71-8.44 4.47-15.62 3.79-25.57q-1.97-28.82-3.97-57.63c-.64-9.09 3.14-12.1 11.73-12.1q16.61 0 33.21-.06c7.56-.03 10.27 4.55 10.24 11.57q-.07 20.23.13 40.44.12 12.74 6.47 21.2 14.03 18.66 33.87 30.12zM25.42 33.82l4.05 58.38c.65 9.59.59 16.95-2.2 25.06-1.66 4.82-4.87 10.29-5.69 15.52-3.39 21.64 14.66 41.06 36.67 36.95q15.43-2.88 24.5-2.54 28.88 1.06 57.75 2.27 9.86.42 13.93-.68 7.1-1.92 12.32-7.52c4.63-4.97 1.08-10.99-4.9-11.92-31.14-4.85-56.39-14.9-77.91-38.51-4.2-4.61-9.2-9.38-11.59-14.89q-3.98-9.16-4.06-20.95-.15-20.77-.05-41.15a3.02 3.01-89.9 0 0-3.01-3.03H28.24a2.83 2.82-1.9 0 0-2.82 3.01zm76.37 6.69q37.35 35.55 74.75 71.22 2.4 2.29 2.74 5.73c.83 8.29-7.82 14.18-15.3 11.07q-2.03-.84-5.55-4.19-28.47-27.11-56.92-54.25-5.06-4.82-6.51-7.58c-3.86-7.32-1.4-17.54 5.19-22.13q.85-.59 1.6.13zm15.6 36.37l6.95-6.62q.35-.33 0-.67l-22.99-21.93q-.39-.37-.65.09c-4.48 7.95-1.12 12.91 5.09 18.85q5.37 5.13 10.82 10.28a.57.57 0 0 0 .78 0zm11.582-3.072a.3.3 0 0 0-.424-.009l-7.29 6.991a.3.3 0 0 0-.009.424l3.239 3.378a.3.3 0 0 0 .424.009l7.29-6.991a.3.3 0 0 0 .009-.424l-3.239-3.378zm7.774 7.43a.27.27 0 0 0-.382-.009l-7.302 6.978a.27.27 0 0 0-.009.382l3.261 3.412a.27.27 0 0 0 .382.009l7.302-6.978a.27.27 0 0 0 .009-.382l-3.261-3.412zm7.094 7.352l-6.95 7.32a.28.28 0 0 0 .01.4l27.6 26.18a5.44 5.24 43.5 0 0 7.55-.05l.12-.13a5.44 5.24 43.5 0 0-.34-7.55l-27.59-26.18a.28.28 0 0 0-.4.01z"/><circle cx="36.1" cy="122.24" r="4.29"/><path d="M47.01 159.73q-16.22-7.45-15.76-25.76c.16-6.18 8.92-6.19 8.58 1.18-.34 7.15 3.43 13.16 9.5 16.38q2.61 1.38 3.24 2.71c1.49 3.15-1.91 7.16-5.56 5.49z"/></svg>