<svg xmlns="http://www.w3.org/2000/svg" viewBox="0 0 200 200"><path d="M82.52 63.9q11.37-4.28 22.68-8.72 4.57-1.8 7.06-1.36c5.52.97 7.22 6.01 6.64 11.52q-.06.53.22.99l26.55 44.26q.3.5.87.54 9.74.77 19.4 1.39 10.14.65 13.85 2.23 7.34 3.13 10.21 10.82 1.37 3.63 1.34 10.52c-.03 6.25.88 14.4-1.43 19.94q-3.1 7.47-10.41 10.3-3.69 1.44-11.67 1.43-20.61-.01-41.2-.02-2.05-.01-3.85-1-56.63-31.37-112.62-62.42a3.08 3.07 28.4 0 1-1.23-4.12q4.24-8.06 8.76-16.5c1.26-2.34 2.51-3.83 5.18-2.41q.47.25.76-.2L53.3 33.58a2.99 2.98 30.1 0 1 3.95-1.05q10.26 5.5 20.79 11.14 6.04 3.24 6.25 10.24c.09 3.06-1.26 6.44-2.2 9.59q-.19.63.43.4zM56.67 40.44l-5.53 9.18q-.28.47.19.75l23.19 13.92q.48.29.67-.24c1.35-3.85 4.91-11.92.07-14.55q-9.09-4.95-17.47-9.37-.71-.38-1.12.31zm53.2 78.18c3.45-3.66 7.76 1.29 5.3 3.81q-3.51 3.6-7.11 7.23-.37.37.08.63 9.7 5.73 19.55 11.22 1.78.99 3.82.99 26.46-.05 52.96-.03.54 0 .54-.54c.03-7.92 1.31-16.53-6.96-20.93q-2.54-1.35-7.96-1.75-11.48-.84-22.97-1.64c-4.09-.29-7.85 1.53-11.59 2.79a3.02 3.02 0 0 1-3.37-1.02l-31.62-41.11a3.11 3.1-37.3 0 1 .6-4.38l11-8.24q.44-.34.43-.89l-.05-2.8a1.9 1.9 0 0 0-2.58-1.74L78.43 72.38a3.9 3.88-40 0 1-3.39-.29L48.03 55.87q-.53-.32-.87.21l-3.34 5.24a.68.68 0 0 0 .17.92c9.23 6.67 17.07 11.19 19.35 21.46 1.24 5.62.1 13.68-.08 20.25q-.01.54.45.81l3.83 2.2q.5.29.94-.08 8.19-6.85 16.4-13.67c3.92-3.25 8.09 1.59 4.03 4.96q-7.23 6-14.46 12.11-.48.4.06.71l9.1 5.2q.5.28.94-.07 6.43-5.1 12.8-10.25c4.24-3.43 8.37 1.79 4.04 5.03q-2.44 1.82-10.89 8.76-.37.3.04.54l10.96 6.3q.42.24.76-.1 3.91-3.84 7.61-7.78zM57.05 99.74c.42-8.17 1.95-17.15-4.93-23.37q-2.52-2.27-11.71-8.74-.42-.3-.69.13L29.15 84.45a.33.33 0 0 0 .12.47l26.72 15.39q1 .58 1.06-.57zm81.83 12.78a.33.33 0 0 0 .17-.49l-24.03-40.06a.33.33 0 0 0-.48-.09l-6.61 4.92a.33.33 0 0 0-.07.47l27.82 36.14a.33.33 0 0 0 .38.11l2.82-1zm-10.43 36.3a4.02 3.95-29.6 0 1-1.99-.53L22.97 88.74q-.53-.31-.81.23l-5.79 10.86q-.24.45.21.7 53.92 29.9 107.86 59.79 1.79 1 3.83 1 20.09.03 40.17.03 6.89 0 9.86-1.48 5.85-2.9 6.71-10.5.07-.57-.5-.57l-56.06.02z"/><rect x="-11.03" y="-3.22" transform="matrix(.999998 .001745 -.001745 .999998 19.71 126.77)" width="22.06" height="6.44" rx="3.11"/><rect x="8.65" y="142.48" width="47.34" height="6.34" rx="3.11"/><rect x="8.66" y="161.35" width="81.9" height="6.4" rx="3.13"/></svg>