<svg xmlns="http://www.w3.org/2000/svg" viewBox="0 0 199 200"><path d="M70.75 55.86q-1.82 6.1-7.8 8.05c-.83.28-2.14.21-3.14.5q-.51.15-.57.67c-1.56 14.2-21.44 12.92-23.81.15-1.27-6.86 3.04-12.27 9.87-13.44q.39-.07.42-.47.91-12.63 13.91-12.42.5.01.64-.48 3.53-12.51 16.65-10.01.56.11.83-.39 6.42-11.48 19.42-7.21a.55.55 0 0 0 .66-.26c12.78-24.49 44.96-8.33 37.78 16.51-4.15 14.34-20.35 20.32-32.22 10.46q-.41-.34-.86-.07c-1.24.75-2.31 1.8-3.46 2.35q-6.4 3.04-13.03.1a.8.79 30.6 0 0-.96.24q-5.1 6.75-13.65 5.29-.53-.09-.68.43zm45.528-9.14a16.32 14.92 89.9 0 0 14.891-16.346 16.32 14.92 89.9 0 0-14.948-16.294 16.32 14.92 89.9 0 0-14.892 16.346 16.32 14.92 89.9 0 0 14.948 16.294zM66.47 37.45c-4.3 8.89 8.43 17.97 14.13 9.09q.26-.4.01-.81c-.74-1.21-1.18-2.47-.04-3.63 2.76-2.8 5.48 1.52 7.43 2.47q5.91 2.86 10.81-1.42.44-.39.14-.89-4.12-6.93-3.02-15.03.06-.49-.37-.73c-6.05-3.35-12.88.38-13.49 7.19-.31 3.39-2.76 3.79-5.11 1.61-3.53-3.28-8.49-1.96-10.49 2.15zm-1.19 15.06L60 45.05a2.83 2.83 0 0 0-3.95-.68l-1.37.97A7.3 7.23 54.7 0 0 53 55.48l.12.16a7.3 7.23 54.7 0 0 10.12 1.78l1.37-.97a2.83 2.83 0 0 0 .67-3.94zM53.2 63.14l-6.16-5.51a2.37 2.37 0 0 0-3.34.19l-1.11 1.24a6.41 6.15 41.8 0 0 .68 8.85l.13.12a6.41 6.15 41.8 0 0 8.88-.31l1.11-1.24a2.37 2.37 0 0 0-.19-3.34zm1.72 21.29c.82-1.64 2.07-4.31 4.12-4.27 2.91.07 3.54 2.55 2.12 4.74q-5.41 8.35-4.11 19.11 2.52 20.92 10.75 45.71 5.29 15.91 14.78 28.45c7.78 10.28 21.27 18.18 32.35 8.32 6.32-5.62 7.6-12.99 4.61-20.69-8.7-22.47-7.74-46.91-1-69.77q2.13-7.21 2.27-10.68c.7-17.3-13.55-23.71-28.48-21.4C82.86 65.42 75.04 70 67.91 76.3q-.34.3-.78.36-2.71.36-3.35-1.94c-.47-1.69.89-2.82 2.1-3.94C77.21 60.29 95.35 54.46 110 59.8c11.42 4.16 17.43 14.71 16.54 26.45q-.19 2.56-3 12.69c-5.54 19.96-6.91 41.24-.08 61.01q2.92 8.43 3.17 10.82c1.12 10.43-5.32 20.89-15.29 24.61-19.39 7.24-36.09-14.6-42.93-29.58Q57.1 141 52.83 114.17c-1.95-12.27-2.96-19.63 2.09-29.74zm50.36 10.99q4.21-5.45 4.88-8.09c2.33-9.08-7.24-15.44-14.47-9.64q-1.17.93-3.33 4.93-.22.42-.69.56-1.59.48-2.23-.73-.22-.42-.01-.84c3.84-7.93 11.41-12.58 19.33-6.85 3.68 2.66 5.48 6.84 4.86 11.28-.56 3.97-4.16 8.8-6.45 12.69a1.37 1.34 56.3 0 0-.17.91c.48 3.04-.69 4.41-2.07 6.81q-3.16 5.5-6.51 10.89c-2.77 4.45-5.93 5.74-10.53 3.05q-6.29-3.65-12.81-7.59a.8.8 0 0 0-1.1.28c-1.93 3.31-4.91 7.19-4.98 10.91-.1 5.67 4.95 9.73 10.36 8.88 5.11-.81 6.44-4.89 8.99-8.67q.32-.47.87-.33l1.49.39q.69.18.39.83-2.93 6.37-4.75 7.78c-10.46 8.09-23.47-.47-19.57-13.15q.81-2.64 5.49-9.46a1.48 1.43 60.9 0 0 .25-.94c-.13-1.8-.15-3.33.79-4.96q6.63-11.55 8.66-14.61c2.66-4 6.54-3.63 10.45-1.28q6 3.59 12.05 7.11.48.28.81-.16zm-1.741 7.293a3.42 3.42 0 0 0-1.178-4.691l-13.043-7.806a3.42 3.42 0 0 0-4.691 1.178l-8.566 14.313a3.42 3.42 0 0 0 1.178 4.691l13.042 7.806a3.42 3.42 0 0 0 4.691-1.178l8.566-14.312z"/><ellipse cx="0" cy="0" transform="matrix(.980271 .197657 -.197657 .980271 87.04 95.01)" rx="1.61" ry="1.39"/><circle cx="93.1" cy="98.66" r="1.49"/><ellipse cx="0" cy="0" transform="matrix(.98796 .15471 -.15471 .98796 83.7 100.6)" rx="1.59" ry="1.35"/><circle cx="99.19" cy="102.31" r="1.47"/><ellipse cx="0" cy="0" transform="matrix(.99945 -.033155 .033155 .99945 89.77 104.2)" rx="1.64" ry="1.38"/><ellipse cx="0" cy="0" transform="matrix(.995396 .095846 -.095846 .995396 80.46 106.15)" rx="1.62" ry="1.37"/><ellipse cx="0" cy="0" transform="matrix(.996195 .087156 -.087156 .996195 95.88 107.85)" rx="1.61" ry="1.38"/><ellipse cx="0" cy="0" transform="matrix(.996637 .081939 -.081939 .996637 86.53 109.75)" rx="1.63" ry="1.34"/><ellipse cx="0" cy="0" transform="matrix(.992332 .123601 -.123601 .992332 92.61 113.34)" rx="1.7" ry="1.31"/></svg>