<svg xmlns="http://www.w3.org/2000/svg" viewBox="0 0 2028.8 512"><circle cx="256" cy="256" r="256" fill="#799fcc"/><path d="M308.6,101H170.5V470h46.1V322.6h92a110.8,110.8,0,0,0,0-221.6Zm0,175.5h-92V147.1h92a64.7,64.7,0,0,1,0,129.4Z"/><polygon points="280.7 101 216.6 101 216.6 36.9 170.5 36.9 170.5 101 106.4 101 106.4 147.1 170.5 147.1 170.5 211.2 216.6 211.2 216.6 147.1 280.7 147.1 280.7 101" fill="#fff"/><path d="M542.5,253.5c0-14.9,2.6-28.6,7.8-40.9A96.5,96.5,0,0,1,571.5,181a93.8,93.8,0,0,1,32.4-20.7,116.5,116.5,0,0,1,81.7,0A93.8,93.8,0,0,1,718,181a98.1,98.1,0,0,1,21.2,31.6c5.2,12.3,7.8,26,7.8,40.9s-2.6,28.7-7.8,40.9A97.5,97.5,0,0,1,718,326.1a93.8,93.8,0,0,1-32.4,20.7,117.9,117.9,0,0,1-81.7,0,93.8,93.8,0,0,1-32.4-20.7,95.9,95.9,0,0,1-21.2-31.7C545.1,282.2,542.5,268.5,542.5,253.5Zm34.4,0a80.1,80.1,0,0,0,4.7,28.1A65,65,0,0,0,595.3,304a64.2,64.2,0,0,0,21.4,15.2,74.3,74.3,0,0,0,56.1,0A64.2,64.2,0,0,0,694.2,304a65,65,0,0,0,13.7-22.4,86.1,86.1,0,0,0,0-56.1A64.6,64.6,0,0,0,694.2,203a65.4,65.4,0,0,0-21.4-15.1,74.3,74.3,0,0,0-56.1,0A65.4,65.4,0,0,0,595.3,203a64.6,64.6,0,0,0-13.7,22.5A79.9,79.9,0,0,0,576.9,253.5Z"/><path d="M941.4,315.3h-.8c-6,10.9-15.5,20.1-28.4,27.6s-28,11.2-45.2,11.2a94.9,94.9,0,0,1-37.6-7.5,93.2,93.2,0,0,1-30.5-21.1,98,98,0,0,1-20.2-31.9,112.1,112.1,0,0,1,0-80.1,96.9,96.9,0,0,1,20.4-31.9,92.2,92.2,0,0,1,31.7-21.1,109,109,0,0,1,41.1-7.6,85.8,85.8,0,0,1,38.3,8.6,95.2,95.2,0,0,1,30.4,24.2h.8V40.1h31.9V349.2H941.4Zm0-61.8a79.9,79.9,0,0,0-4.7-28A64.6,64.6,0,0,0,923,203a65.4,65.4,0,0,0-21.4-15.1,74.3,74.3,0,0,0-56.1,0A65.4,65.4,0,0,0,824.1,203a64.6,64.6,0,0,0-13.7,22.5,86.1,86.1,0,0,0,0,56.1A65,65,0,0,0,824.1,304a64.2,64.2,0,0,0,21.4,15.2,74.3,74.3,0,0,0,56.1,0A64.2,64.2,0,0,0,923,304a65,65,0,0,0,13.7-22.4A80.1,80.1,0,0,0,941.4,253.5Z"/><path d="M1007.8,253.5c0-14.9,2.6-28.6,7.8-40.9a96.5,96.5,0,0,1,21.2-31.6,93.8,93.8,0,0,1,32.4-20.7,116.5,116.5,0,0,1,81.7,0,92.4,92.4,0,0,1,32.3,20.7,96.8,96.8,0,0,1,21.3,31.6c5.2,12.3,7.8,26,7.8,40.9s-2.6,28.7-7.8,40.9a96.2,96.2,0,0,1-21.3,31.7,92.4,92.4,0,0,1-32.3,20.7,117.9,117.9,0,0,1-81.7,0,93.8,93.8,0,0,1-32.4-20.7,95.9,95.9,0,0,1-21.2-31.7C1010.4,282.2,1007.8,268.5,1007.8,253.5Zm34.4,0a80.1,80.1,0,0,0,4.7,28.1,65,65,0,0,0,13.7,22.4,64.2,64.2,0,0,0,21.4,15.2,74.3,74.3,0,0,0,56.1,0,64.2,64.2,0,0,0,21.4-15.2,65,65,0,0,0,13.7-22.4,86.1,86.1,0,0,0,0-56.1,64.6,64.6,0,0,0-13.7-22.5,65.4,65.4,0,0,0-21.4-15.1,74.3,74.3,0,0,0-56.1,0,65.4,65.4,0,0,0-21.4,15.1,64.6,64.6,0,0,0-13.7,22.5A79.9,79.9,0,0,0,1042.2,253.5Z"/><path d="M1248.8,40.1h31.9V349.2h-31.9Z"/><path d="M1317.8,253.5c0-14.9,2.6-28.6,7.8-40.9a96.8,96.8,0,0,1,21.3-31.6,93.4,93.4,0,0,1,32.3-20.7,116.7,116.7,0,0,1,81.8,0,93.9,93.9,0,0,1,53.5,52.3c5.2,12.3,7.8,26,7.8,40.9s-2.6,28.7-7.8,40.9a93.6,93.6,0,0,1-53.5,52.4,118.2,118.2,0,0,1-81.8,0,93.4,93.4,0,0,1-32.3-20.7,96.2,96.2,0,0,1-21.3-31.7C1320.4,282.2,1317.8,268.5,1317.8,253.5Zm34.4,0a80.1,80.1,0,0,0,4.7,28.1,65,65,0,0,0,13.7,22.4,63.6,63.6,0,0,0,21.5,15.2,74,74,0,0,0,56,0,64.2,64.2,0,0,0,21.4-15.2,65,65,0,0,0,13.7-22.4,84.4,84.4,0,0,0,0-56.1,64.6,64.6,0,0,0-13.7-22.5,65.4,65.4,0,0,0-21.4-15.1,74,74,0,0,0-56,0,64.4,64.4,0,0,0-35.2,37.6A79.9,79.9,0,0,0,1352.2,253.5Z"/><path d="M1748.7,340.7c0,34.8-9,61.4-26.8,79.5s-43.7,27.2-77.5,27.2c-18.8,0-35.8-2.7-50.9-8.2s-29.6-14.9-43.2-28.2l22.9-26.2c10.1,10.9,20.8,19.2,32.1,24.8s24.4,8.3,39.1,8.3,25.9-2.1,35.3-6.3a55,55,0,0,0,22.3-17.2,64.5,64.5,0,0,0,11.5-24.7,125.8,125.8,0,0,0,3.3-29V316.1h-.9c-7.6,12.3-17.5,21.3-29.8,27a88.5,88.5,0,0,1-37.6,8.6,112.4,112.4,0,0,1-41.3-7.4,94.7,94.7,0,0,1-32.3-20.4,90.2,90.2,0,0,1-20.9-31.1,103,103,0,0,1-7.4-39.3c0-15.5,2.5-29.5,7.4-42.1a86,86,0,0,1,52.8-51.5,120,120,0,0,1,41.7-7,88.1,88.1,0,0,1,19.6,2.3,83.3,83.3,0,0,1,19,6.9,69.9,69.9,0,0,1,16.6,11.9,63.1,63.1,0,0,1,12.2,16.6h.9V157.8h31.9ZM1581,253.5a69.1,69.1,0,0,0,5.3,27.2,66.6,66.6,0,0,0,14.5,21.7,69.1,69.1,0,0,0,21.5,14.5,64.3,64.3,0,0,0,26.2,5.3c10.9,0,20.5-1.9,29-5.7a64,64,0,0,0,34.8-37.4,77.1,77.1,0,0,0,4.5-26.4,81,81,0,0,0-4.9-28.4,66.5,66.5,0,0,0-14-22.3,60.9,60.9,0,0,0-21.6-14.5,74.3,74.3,0,0,0-27.8-5.1,67,67,0,0,0-27.6,5.5,63,63,0,0,0-21.3,15.1,69.4,69.4,0,0,0-13.7,22.5A77.8,77.8,0,0,0,1581,253.5Z"/><path d="M1825.7,53.2h44.9L1812.2,112h-29.1Zm-30.3,104.6h31.9V349.2h-31.9Z"/><path d="M1869.7,182.4a90.1,90.1,0,0,1,35-22.3,121.9,121.9,0,0,1,41.1-7.2c28.3,0,48.8,6.7,61.3,20.1s18.8,33.7,18.8,60.9v82.2c0,5.5.3,11.1.8,17s1.3,11.2,2.1,16.1h-30.7a63.9,63.9,0,0,1-1.8-14.5c-.2-5.3-.2-10-.2-14.1h-.9a73.4,73.4,0,0,1-25.1,24.1c-10.5,6.3-23.1,9.4-37.8,9.4a102.3,102.3,0,0,1-27.6-3.6,69.3,69.3,0,0,1-22.5-10.9,54,54,0,0,1-15.4-17.8c-3.8-7-5.7-15.2-5.7-24.5q0-23.7,12.3-37.2a75,75,0,0,1,30.4-20.1,154,154,0,0,1,39.3-8.1c14-1.1,26.9-1.7,38.7-1.7H1994v-5.7c0-13.9-4.1-24.4-12.5-31.5s-19.9-10.6-34.9-10.6a93.9,93.9,0,0,0-30.5,5.1,75.3,75.3,0,0,0-26.4,15.7Zm92.4,74.8c-20.4,0-36.6,2.9-48.6,8.6s-18,15.1-18,28.2,4,20.5,12,25.6,18.1,7.6,30.1,7.6c9.2,0,17.4-1.6,24.3-4.7a51.1,51.1,0,0,0,17.4-12.5,54.1,54.1,0,0,0,10.6-18.2,74.1,74.1,0,0,0,4.1-22.3V257.2Z"/></svg>